<?xml version="1.0" encoding="UTF-8"?><svg xmlns="http://www.w3.org/2000/svg" xmlns:xlink="http://www.w3.org/1999/xlink" viewBox="0 0 904.06 119.81"><defs><style>.e{fill:url(#d);}.f{fill:#fff;}.g{opacity:.7;}</style><linearGradient id="d" x1="26.34" y1="78.22" x2="47.17" y2="57.39" gradientTransform="matrix(1, 0, 0, 1, 0, 0)" gradientUnits="userSpaceOnUse"><stop offset="0" stop-color="#fff"/><stop offset=".12" stop-color="#fff" stop-opacity=".96"/><stop offset=".33" stop-color="#fff" stop-opacity=".87"/><stop offset=".58" stop-color="#fff" stop-opacity=".71"/><stop offset=".88" stop-color="#fff" stop-opacity=".49"/><stop offset="1" stop-color="#fff" stop-opacity=".4"/></linearGradient></defs><g id="a"/><g id="b"><g id="c"><g class="g"><path class="f" d="M190.67,15.86c0-4.04-2.55-5.74-7.38-6.95-3.03-.76-3.73-1.41-3.73-2.42,0-1.21,1.05-1.81,3.04-1.81,2.41,0,4.78,.77,7.03,1.86V1.49c-1.57-.85-4.22-1.49-6.88-1.49-5.26,0-8.18,2.53-8.18,6.6s2.58,5.89,6.99,6.87c3.05,.68,4,1.19,4,2.5,0,1.01-.73,1.81-3.04,1.81-2.71,0-5.96-.97-8.06-2.3v5.28c1.68,.89,4.5,1.86,8.03,1.86,5.55,0,8.18-2.69,8.18-6.76Z"/><path class="f" d="M251.09,.31V22.31h4.67V5.56l1.97,4.44,6.6,12.31h5.88V.31h-4.67V14.52l-1.77-4.12-5.32-10.09h-7.37Z"/><path class="f" d="M221.42,.31h-5.12V22.31h5.12V.31Z"/><path class="f" d="M134.97,.31V22.31h10.47l1.65-4.76h-7V.31h-5.11Z"/><path class="f" d="M114.24,.31V5.08h5.68V22.31h5.11V5.08h6.08V.31h-16.87Z"/><path class="f" d="M106.79,.31h-6.74l-7.66,22h5.85l1.09-3.72c1.29,.36,2.66,.61,4.11,.61s2.78-.2,4.11-.61l1.09,3.72h5.85L106.79,.31Zm-3.39,14.35c-.97,0-1.94-.16-2.82-.4l2.82-9.62,2.82,9.62c-.89,.24-1.82,.4-2.82,.4Z"/><path class="f" d="M163.55,.31h-6.74l-7.66,22h5.85l1.09-3.72c1.29,.36,2.66,.61,4.11,.61s2.78-.2,4.11-.61l1.09,3.72h5.85L163.55,.31Zm-3.39,14.35c-.97,0-1.94-.16-2.82-.4l2.82-9.62,2.82,9.62c-.89,.24-1.86,.4-2.82,.4Z"/><path class="f" d="M239.78,.31h-6.74l-7.66,22h5.85l1.09-3.72c1.29,.36,2.66,.61,4.11,.61s2.78-.2,4.11-.61l1.09,3.72h5.85L239.78,.31Zm-3.35,14.35c-.97,0-1.94-.16-2.82-.4l2.82-9.62,2.82,9.62c-.93,.24-1.86,.4-2.82,.4Z"/><path class="f" d="M211.04,15.86c0-4.04-2.55-5.74-7.38-6.95-3.03-.76-3.73-1.41-3.73-2.42,0-1.21,1.05-1.81,3.04-1.81,2.41,0,4.78,.77,7.03,1.86V1.49c-1.57-.85-4.22-1.49-6.88-1.49-5.26,0-8.18,2.53-8.18,6.6s2.58,5.89,6.99,6.87c3.05,.68,4,1.19,4,2.5,0,1.01-.73,1.81-3.04,1.81-2.71,0-5.96-.97-8.06-2.3v5.28c1.68,.89,4.5,1.86,8.03,1.86,5.55,0,8.18-2.69,8.18-6.76Z"/></g><g><g><path class="e" d="M40.17,71.89s.06,1.09,.06,2.6c0,5.61-4.55,10.16-10.16,10.16s-10.16-4.55-10.16-10.16,4.55-10.16,10.16-10.16c1.51,0,2.43,.05,2.43,.05v-19.85c-.8-.06-1.61-.11-2.43-.11C13.46,44.42,0,57.89,0,74.49s13.46,30.07,30.07,30.07,30.07-13.46,30.07-30.07c0-.96-.02-1.62-.1-2.61h-19.87Z"/><path class="f" d="M37.09,41.46c8.34,2.26,16.69,2.26,25.03,0,.6-.16,1.14,.38,.98,.98-2.26,8.34-2.26,16.69,0,25.03,.16,.6-.38,1.14-.98,.98-8.34-2.26-16.69-2.26-25.03,0-.6,.16-1.14-.38-.98-.98,2.26-8.34,2.26-16.69,0-25.03-.16-.6,.38-1.14,.98-.98Z"/></g><g><path class="f" d="M101.43,44.3h7.92v40.21c0,10.65-4.66,17.95-15.58,17.95-4.14,0-7.3-.7-9.5-1.5v-7.66c2.38,.97,5.28,1.5,8.18,1.5,6.69,0,8.98-4.05,8.98-9.77V44.3Z"/><path class="f" d="M123.78,41.22c3.08,0,5.28,1.94,5.28,5.28s-2.2,5.28-5.28,5.28-5.28-1.94-5.28-5.28,2.2-5.28,5.28-5.28Zm-3.87,16.9h7.57v44h-7.57V58.12Z"/><path class="f" d="M146.3,102.12h-7.39V58.12h7.39v7.74c2.55-5.19,6.95-8.89,15.58-8.36v7.39c-9.68-.97-15.58,1.94-15.58,11.26v25.96Z"/><path class="f" d="M197.34,94.2c-2.82,5.81-8.1,8.8-14.87,8.8-11.7,0-17.6-9.94-17.6-22.88s6.16-22.88,18.48-22.88c6.42,0,11.35,2.9,13.99,8.62v-7.74h7.57v44h-7.57v-7.92Zm-12.85,1.76c6.78,0,12.85-4.31,12.85-14.08v-3.52c0-9.77-5.54-14.08-11.97-14.08-8.54,0-12.94,5.63-12.94,15.84s4.22,15.84,12.06,15.84Z"/><path class="f" d="M253.31,83.2h-11.53v18.92h-7.92V44.3h19.45c14.43,0,21.47,7.39,21.47,19.27,0,12.58-7.04,19.62-21.47,19.62Zm13.29-19.45c0-7.04-3.96-11.88-14.17-11.88h-10.65v23.76h10.65c10.21,.35,14.17-4.49,14.17-11.88Z"/><path class="f" d="M289.13,102.12h-7.39V58.12h7.39v7.74c2.55-5.19,6.95-8.89,15.58-8.36v7.39c-9.68-.97-15.58,1.94-15.58,11.26v25.96Z"/><path class="f" d="M307.7,80.03c0-13.2,7.74-22.79,20.94-22.79s20.77,9.59,20.77,22.79-7.66,22.97-20.77,22.97-20.94-9.77-20.94-22.97Zm7.39,0c0,8.36,4.14,15.93,13.55,15.93s13.38-7.57,13.38-15.93-4.05-15.75-13.38-15.75-13.55,7.39-13.55,15.75Z"/><path class="f" d="M388.04,94.2c-2.82,5.81-8.1,8.8-14.87,8.8-11.7,0-17.6-9.94-17.6-22.88s6.16-22.88,18.48-22.88c6.42,0,11.35,2.9,13.99,8.62v-26.14h7.57v62.39h-7.57v-7.92Zm-12.85,1.76c6.78,0,12.85-4.31,12.85-14.08v-3.52c0-9.77-5.54-14.08-11.97-14.08-8.54,0-12.94,5.63-12.94,15.84s4.22,15.84,12.06,15.84Z"/><path class="f" d="M406.17,58.12h7.57v26.58c0,7.92,3.17,11.44,10.38,11.44s11.88-4.66,11.88-13.55v-24.46h7.57v44h-7.57v-7.22c-2.82,5.19-8.01,8.1-13.9,8.1-10.12,0-15.93-6.95-15.93-19.1v-25.78Z"/><path class="f" d="M486.07,100.97c-2.64,1.41-6.69,2.02-10.74,2.02-15.66,0-22.97-9.5-22.97-22.97s7.3-22.79,22.97-22.79c3.96,0,7.04,.53,10.47,2.11v7.04c-2.82-1.32-5.81-2.11-9.94-2.11-11.44,0-16.1,7.22-16.1,15.75s4.75,15.75,16.28,15.75c4.49,0,7.3-.62,10.03-1.58v6.78Z"/><path class="f" d="M512.12,94.99c1.76,0,3.43-.35,4.75-.62v7.3c-1.32,.35-2.82,.7-5.1,.7-9.42,0-13.99-5.54-13.99-13.73v-23.5h-7.13v-7.04h7.13v-9.33h7.39v9.33h11.7v7.04h-11.7v23.32c0,3.87,2.29,6.51,6.95,6.51Z"/><path class="f" d="M543.62,44.3h21.3c18.74,0,27.81,11.7,27.81,29.04s-9.15,28.78-27.81,28.78h-21.3V44.3Zm7.92,7.57v42.68h13.46c13.2,0,19.8-6.95,19.8-20.94s-6.25-21.74-20.24-21.74h-13.02Z"/><path class="f" d="M604.96,41.22c3.08,0,5.28,1.94,5.28,5.28s-2.2,5.28-5.28,5.28-5.28-1.94-5.28-5.28,2.2-5.28,5.28-5.28Zm-3.87,16.9h7.57v44h-7.57V58.12Z"/><path class="f" d="M633.91,103c-6.6,0-11.97-1.5-15.31-3.26v-8.01c3.78,2.2,10.12,4.31,15.66,4.31s8.8-2.38,8.8-5.81-2.55-5.28-10.91-7.3c-9.77-2.38-13.9-6.16-13.9-13.38,0-7.66,5.9-12.32,15.93-12.32,5.72,0,10.91,1.41,14.17,3.17v7.83c-5.28-2.64-9.59-4.05-14.26-4.05-5.54,0-8.54,1.94-8.54,5.37,0,3.08,2.11,5.02,10.21,6.95,9.77,2.38,14.7,5.98,14.7,13.64s-4.75,12.85-16.54,12.85Z"/><path class="f" d="M690.22,100.97c-2.64,1.41-6.69,2.02-10.74,2.02-15.66,0-22.97-9.5-22.97-22.97s7.3-22.79,22.97-22.79c3.96,0,7.04,.53,10.47,2.11v7.04c-2.82-1.32-5.81-2.11-9.94-2.11-11.44,0-16.1,7.22-16.1,15.75s4.75,15.75,16.28,15.75c4.49,0,7.3-.62,10.03-1.58v6.78Z"/><path class="f" d="M696.21,80.03c0-13.2,7.74-22.79,20.94-22.79s20.77,9.59,20.77,22.79-7.66,22.97-20.77,22.97-20.94-9.77-20.94-22.97Zm7.39,0c0,8.36,4.14,15.93,13.55,15.93s13.38-7.57,13.38-15.93-4.05-15.75-13.38-15.75-13.55,7.39-13.55,15.75Z"/><path class="f" d="M757.1,102.12l-17.07-44h7.92l14.26,37.58,14.17-37.58h7.92l-17.07,44h-10.12Z"/><path class="f" d="M810.08,103c-16.46,0-23.67-9.5-23.67-22.97s7.39-22.79,20.77-22.79,19.01,9.42,19.01,22.79v3.43h-32.12c1.06,7.48,5.9,12.32,16.28,12.32,5.1,0,9.42-.97,13.38-2.38v6.95c-3.61,1.94-9.15,2.64-13.64,2.64Zm-16.1-26.05h24.55c-.44-8.18-4.14-12.85-11.7-12.85-8.01,0-12.06,5.19-12.85,12.85Z"/><path class="f" d="M842.55,102.12h-7.39V58.12h7.39v7.74c2.55-5.19,6.95-8.89,15.58-8.36v7.39c-9.68-.97-15.58,1.94-15.58,11.26v25.96Z"/><path class="f" d="M875.64,99.3l-15.93-41.18h8.1l14.08,37.66,14.08-37.66h8.1l-16.63,42.59c-4.93,12.58-7.74,19.1-18.92,19.1-3.78,0-5.9-.35-8.1-1.23v-6.51c2.55,.79,5.46,1.06,7.66,1.06,6.16,0,8.89-4.22,12.5-13.82h-4.93Z"/></g></g></g></g></svg>