<svg width="187" height="32" viewBox="0 0 187 32" fill="none" xmlns="http://www.w3.org/2000/svg">
<path d="M41.6375 21.0976C37.6795 21.0976 35.8418 20.3201 34.2515 19.5073V16.6448C36.1599 17.6343 39.0578 18.3411 41.7789 18.3411C44.8535 18.3411 46.0197 17.1396 46.0197 15.3373C46.0197 13.535 44.8888 12.5808 41.0015 11.6267C36.4073 10.4958 34.3576 8.90551 34.3576 5.54827C34.3576 2.36772 36.796 0 41.5316 0C44.5001 0 46.3731 0.70677 47.7867 1.48424V4.27606C45.737 3.10986 43.5106 2.72112 41.4255 2.72112C38.7397 2.72112 37.1494 3.63995 37.1494 5.51294C37.1494 7.20923 38.457 8.02206 42.0616 8.94088C46.3731 10.0364 48.8115 11.4146 48.8115 15.0899C48.8115 18.6945 46.6911 21.0976 41.6375 21.0976Z" fill="white"/>
<path d="M58.284 18.2704C58.9202 18.2704 59.4857 18.1291 59.9805 18.0584V20.6379C59.5211 20.7793 58.9909 20.8853 58.1779 20.8853C54.8555 20.8853 53.2296 18.9418 53.2296 16.0442V7.74027H50.7201V5.26674H53.2296V1.98047H55.8452V5.26674H59.9805V7.74027H55.8452V15.9736C55.8098 17.3517 56.6227 18.2704 58.284 18.2704Z" fill="white"/>
<path d="M73.3044 17.9879C72.3147 20.0374 70.4415 21.0975 68.0381 21.0975C63.9028 21.0975 61.8175 17.5992 61.8175 13.0053C61.8175 8.62351 64.0088 4.91309 68.3562 4.91309C70.6182 4.91309 72.3854 5.93786 73.3044 7.95208V5.23113H75.9905V20.7795H73.3044V17.9879ZM68.745 18.6239C71.1484 18.6239 73.269 17.1044 73.269 13.6414V12.4046C73.269 8.94152 71.3251 7.42202 69.0277 7.42202C66.0235 7.42202 64.4683 9.40093 64.4683 13.0053C64.5037 16.7511 65.9882 18.6239 68.745 18.6239Z" fill="white"/>
<path d="M86.169 18.2704C86.8052 18.2704 87.3707 18.1291 87.8656 18.0584V20.6379C87.4061 20.7793 86.8759 20.8853 86.063 20.8853C82.7405 20.8853 81.1146 18.9418 81.1146 16.0442V7.74027H78.6051V5.26674H81.1146V1.98047H83.7301V5.26674H87.8656V7.74027H83.7301V15.9736C83.7301 17.3517 84.5431 18.2704 86.169 18.2704Z" fill="white"/>
<path d="M90.9756 5.23069H93.6616V14.6313C93.6616 17.4232 94.7925 18.6601 97.3372 18.6601C99.8111 18.6601 101.543 16.9991 101.543 13.8537V5.19531H104.229V20.7451H101.543V18.2006C100.553 20.0384 98.7155 21.0632 96.6303 21.0632C93.0608 21.0632 91.011 18.5894 91.011 14.3132V5.23069H90.9756Z" fill="white"/>
<path d="M113.101 21.0975C110.768 21.0975 108.86 20.5675 107.693 19.9314V17.1044C109.036 17.8819 111.263 18.6239 113.242 18.6239C115.292 18.6239 116.352 17.7758 116.352 16.5744C116.352 15.4083 115.433 14.7015 112.5 13.9947C109.036 13.1466 107.587 11.8038 107.587 9.25954C107.587 6.53857 109.673 4.91309 113.207 4.91309C115.221 4.91309 117.059 5.40779 118.225 6.04386V8.80018C116.352 7.88142 114.833 7.38669 113.171 7.38669C111.228 7.38669 110.167 8.05811 110.167 9.29491C110.167 10.3904 110.91 11.0618 113.772 11.7685C117.236 12.6166 118.968 13.8887 118.968 16.5744C118.968 19.154 117.271 21.0975 113.101 21.0975Z" fill="white"/>
<path d="M124.692 18.0594V26.8589H122.006V5.23115H124.692V8.02294C125.682 5.97325 127.555 4.91309 129.959 4.91309C134.094 4.91309 136.179 8.41171 136.179 13.0059C136.179 17.388 133.988 21.0986 129.64 21.0986C127.379 21.0986 125.647 20.0737 124.692 18.0594ZM129.252 7.42219C126.848 7.42219 124.728 8.94178 124.728 12.4051V13.6419C124.728 17.1052 126.672 18.6248 128.969 18.6248C131.973 18.6248 133.528 16.6458 133.528 13.0412C133.493 9.29519 132.008 7.42219 129.252 7.42219Z" fill="white"/>
<path d="M149.821 17.9879C148.831 20.0374 146.958 21.0975 144.555 21.0975C140.42 21.0975 138.334 17.5992 138.334 13.0053C138.334 8.62351 140.526 4.91309 144.873 4.91309C147.135 4.91309 148.902 5.93786 149.821 7.95208V5.23113H152.507V20.7795H149.821V17.9879ZM145.297 18.6239C147.7 18.6239 149.821 17.1044 149.821 13.6414V12.4046C149.821 8.94152 147.877 7.42202 145.58 7.42202C142.576 7.42202 141.02 9.40093 141.02 13.0053C141.02 16.7511 142.54 18.6239 145.297 18.6239Z" fill="white"/>
<path d="M167.033 17.9885C166.043 20.0381 164.17 21.0983 161.767 21.0983C157.667 21.0983 155.617 17.5998 155.617 13.0057C155.617 8.62368 157.773 4.91309 162.085 4.91309C164.347 4.91309 166.114 5.93791 167.033 7.95223V5.23114H169.649V19.3667C169.649 23.9254 167.492 26.9999 161.943 26.9999C159.328 26.9999 157.914 26.6465 156.394 26.1518V23.5367C158.091 24.1021 159.893 24.4555 161.802 24.4555C165.69 24.4555 167.033 22.3705 167.033 19.4727V17.9885ZM162.509 18.6246C164.912 18.6246 167.033 17.105 167.033 13.6418V12.4049C167.033 8.94171 165.089 7.42214 162.792 7.42214C159.787 7.42214 158.232 9.40114 158.232 13.0057C158.232 16.7516 159.717 18.6246 162.509 18.6246Z" fill="white"/>
<path d="M181.134 21.0975C175.302 21.0975 172.757 17.7405 172.757 12.97C172.757 8.2701 175.373 4.91309 180.109 4.91309C184.916 4.91309 186.825 8.23476 186.825 12.97V14.1714H175.479C175.867 16.8217 177.564 18.5179 181.24 18.5179C183.043 18.5179 184.563 18.1645 185.977 17.6698V20.1434C184.669 20.8502 182.725 21.0975 181.134 21.0975ZM175.443 11.9098H184.139C183.997 9.01218 182.689 7.38669 180.003 7.38669C177.14 7.35136 175.726 9.18887 175.443 11.9098Z" fill="white"/>
<path d="M13.671 21.1784C17.0885 21.1784 19.859 18.4085 19.859 14.9917C19.859 11.5748 17.0885 8.80493 13.671 8.80493C10.2534 8.80493 7.48297 11.5748 7.48297 14.9917C7.48297 18.4085 10.2534 21.1784 13.671 21.1784Z" fill="url(#paint0_linear)"/>
<path d="M0.658925 7.10758L3.98283 11.0679C4.23036 11.3508 4.69006 11.3861 4.97295 11.1386C10.3478 6.32967 17.0309 6.32967 22.4057 11.1386C22.6886 11.3861 23.1483 11.3508 23.3958 11.0679C24.2091 10.0778 25.9418 8.06229 26.7197 7.10758C26.9673 6.8247 26.9319 6.4004 26.649 6.15288C18.8343 -0.706886 8.50901 -0.706886 0.729672 6.15288C0.446787 6.4004 0.4114 6.8247 0.658925 7.10758Z" fill="white"/>
<defs>
<linearGradient id="paint0_linear" x1="13.6796" y1="7.80144" x2="13.6796" y2="17.2087" gradientUnits="userSpaceOnUse">
<stop stop-color="white" stop-opacity="0.4"/>
<stop offset="1" stop-color="white"/>
</linearGradient>
</defs>
</svg>
