<svg width="187" height="32" viewBox="0 0 187 32" fill="none" xmlns="http://www.w3.org/2000/svg">
<path d="M41.182 21.0977C37.2218 21.0977 35.3831 20.3203 33.792 19.5074V16.6449C35.7014 17.6345 38.6008 18.3413 41.3234 18.3413C44.3996 18.3413 45.5665 17.1397 45.5665 15.3374C45.5665 13.5351 44.435 12.5809 40.5455 11.6267C35.9489 10.4959 33.8981 8.90556 33.8981 5.5483C33.8981 2.36774 36.3378 0 41.0759 0C44.046 0 45.92 0.706775 47.3344 1.48425V4.27608C45.2836 3.10988 43.056 2.72113 40.9698 2.72113C38.2825 2.72113 36.6914 3.63997 36.6914 5.51297C36.6914 7.20927 37.9997 8.02211 41.6063 8.94094C45.92 10.0365 48.3598 11.4147 48.3598 15.09C48.3598 18.6946 46.2383 21.0977 41.182 21.0977Z" fill="#505F79"/>
<path d="M57.8359 18.2719C58.4723 18.2719 59.038 18.1306 59.5331 18.0599V20.6396C59.0734 20.7809 58.543 20.8869 57.7298 20.8869C54.4061 20.8869 52.7796 18.9434 52.7796 16.0457V7.74144H50.2692V5.26783H52.7796V1.98145H55.3961V5.26783H59.5331V7.74144H55.3608V15.975C55.3608 17.3532 56.174 18.2719 57.8359 18.2719Z" fill="#505F79"/>
<path d="M72.864 17.9882C71.874 20.0378 69.9999 21.0979 67.5955 21.0979C63.4584 21.0979 61.3722 17.5995 61.3722 13.0056C61.3722 8.62379 63.5645 4.91333 67.9137 4.91333C70.1767 4.91333 71.9447 5.93811 72.864 7.95236V5.23138H75.5514V20.7799H72.864V17.9882ZM68.3027 18.6243C70.7071 18.6243 72.8287 17.1048 72.8287 13.6417V12.4049C72.8287 8.9418 70.8839 7.42229 68.5855 7.42229C65.58 7.42229 64.0242 9.40121 64.0242 13.0056C64.0595 16.7514 65.5446 18.6243 68.3027 18.6243Z" fill="#505F79"/>
<path d="M85.7347 18.2719C86.3713 18.2719 86.9371 18.1306 87.4322 18.0599V20.6396C86.9724 20.7809 86.442 20.8869 85.6286 20.8869C82.3045 20.8869 80.6778 18.9434 80.6778 16.0457V7.74144H78.167V5.26783H80.6778V1.98145H83.2947V5.26783H87.4322V7.74144H83.2947V15.975C83.2593 17.3532 84.0727 18.2719 85.7347 18.2719Z" fill="#505F79"/>
<path d="M90.5431 5.23044H93.2304V14.6309C93.2304 17.4228 94.362 18.6597 96.9079 18.6597C99.3831 18.6597 101.116 16.9987 101.116 13.8534V5.19507H103.803V20.7448H101.116V18.2003C100.126 20.038 98.2869 21.0628 96.2007 21.0628C92.6293 21.0628 90.5784 18.589 90.5784 14.3129V5.23044H90.5431Z" fill="#505F79"/>
<path d="M112.678 21.0979C110.344 21.0979 108.435 20.5679 107.268 19.9318V17.1048C108.612 17.8822 110.839 18.6243 112.82 18.6243C114.871 18.6243 115.931 17.7762 115.931 16.5747C115.931 15.4086 115.012 14.7018 112.077 13.9951C108.612 13.147 107.162 11.8041 107.162 9.25983C107.162 6.53883 109.248 4.91333 112.784 4.91333C114.8 4.91333 116.639 5.40804 117.805 6.04412V8.80047C115.931 7.88169 114.411 7.38696 112.749 7.38696C110.804 7.38696 109.743 8.05839 109.743 9.2952C109.743 10.3907 110.486 11.0621 113.35 11.7688C116.815 12.6169 118.548 13.8891 118.548 16.5747C118.548 19.1544 116.851 21.0979 112.678 21.0979Z" fill="#505F79"/>
<path d="M124.276 18.0597V26.8593H121.589V5.2314H124.276V8.02321C125.266 5.9735 127.14 4.91333 129.545 4.91333C133.682 4.91333 135.768 8.41198 135.768 13.0061C135.768 17.3883 133.576 21.0989 129.226 21.0989C126.963 21.0989 125.231 20.0741 124.276 18.0597ZM128.837 7.42245C126.433 7.42245 124.311 8.94205 124.311 12.4053V13.6422C124.311 17.1055 126.256 18.6251 128.554 18.6251C131.56 18.6251 133.116 16.6461 133.116 13.0415C133.081 9.29546 131.595 7.42245 128.837 7.42245Z" fill="#505F79"/>
<path d="M149.417 17.9882C148.427 20.0378 146.552 21.0979 144.148 21.0979C140.011 21.0979 137.925 17.5995 137.925 13.0056C137.925 8.62379 140.117 4.91333 144.466 4.91333C146.729 4.91333 148.497 5.93811 149.417 7.95236V5.23138H152.104V20.7799H149.417V17.9882ZM144.891 18.6243C147.295 18.6243 149.417 17.1048 149.417 13.6417V12.4049C149.417 8.9418 147.472 7.42229 145.173 7.42229C142.168 7.42229 140.612 9.40121 140.612 13.0056C140.612 16.7514 142.133 18.6243 144.891 18.6243Z" fill="#505F79"/>
<path d="M166.637 17.9888C165.647 20.0384 163.773 21.0986 161.368 21.0986C157.266 21.0986 155.216 17.6 155.216 13.006C155.216 8.62393 157.373 4.91333 161.686 4.91333C163.95 4.91333 165.718 5.93815 166.637 7.95247V5.23139H169.254V19.367C169.254 23.9257 167.097 27.0002 161.545 27.0002C158.928 27.0002 157.514 26.6468 155.993 26.152V23.537C157.691 24.1024 159.494 24.4558 161.404 24.4558C165.293 24.4558 166.637 22.3708 166.637 19.473V17.9888ZM162.075 18.6248C164.48 18.6248 166.602 17.1053 166.602 13.642V12.4052C166.602 8.94196 164.657 7.42239 162.358 7.42239C159.353 7.42239 157.797 9.40139 157.797 13.006C157.832 16.7519 159.317 18.6248 162.075 18.6248Z" fill="#505F79"/>
<path d="M180.745 21.0979C174.911 21.0979 172.365 17.7409 172.365 12.9703C172.365 8.27038 174.982 4.91333 179.72 4.91333C184.528 4.91333 186.438 8.23504 186.438 12.9703V14.1718H175.088C175.477 16.8221 177.174 18.5183 180.851 18.5183C182.654 18.5183 184.175 18.1649 185.589 17.6702V20.1438C184.281 20.8506 182.301 21.0979 180.745 21.0979ZM175.052 11.9101H183.75C183.609 9.01247 182.301 7.38696 179.613 7.38696C176.749 7.35162 175.3 9.18915 175.052 11.9101Z" fill="#505F79"/>
<path d="M13.2126 20.8252C16.6301 20.8252 19.4005 18.055 19.4005 14.6377C19.4005 11.2204 16.6301 8.4502 13.2126 8.4502C9.79518 8.4502 7.02478 11.2204 7.02478 14.6377C7.02478 18.055 9.79518 20.8252 13.2126 20.8252Z" fill="url(#paint0_linear)"/>
<path d="M0.200433 7.46073L3.52424 11.3849C3.77175 11.7031 4.23142 11.7385 4.5143 11.4556C9.88895 6.64763 16.5365 6.64763 21.9112 11.4556C22.1941 11.7031 22.6537 11.6677 22.9013 11.3849L26.225 7.46073C26.4726 7.17791 26.4372 6.71834 26.1543 6.47087C18.3752 -0.35227 8.05025 -0.35227 0.271156 6.47087C-0.0117202 6.7537 -0.047084 7.17791 0.200433 7.46073Z" fill="#7A869A"/>
<defs>
<linearGradient id="paint0_linear" x1="13.216" y1="18.6745" x2="13.216" y2="7.73075" gradientUnits="userSpaceOnUse">
<stop stop-color="#7A869A"/>
<stop offset="0.824" stop-color="#344563"/>
</linearGradient>
</defs>
</svg>
