<svg width="187" height="32" viewBox="0 0 187 32" fill="none" xmlns="http://www.w3.org/2000/svg">
<path d="M41.1547 21.0976C37.1964 21.0976 35.3585 20.3201 33.7681 19.5073V16.6448C35.6766 17.6343 38.5747 18.3411 41.2961 18.3411C44.3709 18.3411 45.5372 17.1396 45.5372 15.3373C45.5372 13.535 44.4063 12.5808 40.5186 11.6267C35.924 10.4958 33.8742 8.90551 33.8742 5.54827C33.8742 2.36772 36.3128 0 41.0487 0C44.0175 0 45.8907 0.70677 47.3044 1.48424V4.27606C45.2545 3.10986 43.0279 2.72112 40.9427 2.72112C38.2566 2.72112 36.6662 3.63995 36.6662 5.51294C36.6662 7.20923 37.9739 8.02206 41.5788 8.94088C45.8906 10.0364 48.3293 11.4146 48.3293 15.0899C48.3293 18.6945 46.2087 21.0976 41.1547 21.0976Z" fill="#253858"/>
<path d="M57.8011 18.2704C58.4372 18.2704 59.0027 18.1291 59.4975 18.0584V20.6379C59.0381 20.7793 58.5079 20.8853 57.695 20.8853C54.3728 20.8853 52.7471 18.9418 52.7471 16.0442V7.74027H50.2024V5.26674H52.7117V1.98047H55.3271V5.26674H59.4622V7.74027H55.3271V15.9736C55.3271 17.3517 56.14 18.2704 57.8011 18.2704Z" fill="#253858"/>
<path d="M72.8216 17.9879C71.8321 20.0374 69.9589 21.0975 67.5556 21.0975C63.4206 21.0975 61.3354 17.5992 61.3354 13.0053C61.3354 8.62351 63.5266 4.91309 67.8737 4.91309C70.1356 4.91309 71.9027 5.93786 72.8216 7.95208V5.23113H75.5077V20.7795H72.8216V17.9879ZM68.2625 18.6239C70.6658 18.6239 72.7863 17.1044 72.7863 13.6414V12.4046C72.7863 8.94152 70.8425 7.42202 68.5452 7.42202C65.5411 7.42202 63.986 9.40093 63.986 13.0053C64.0214 16.7511 65.5058 18.6239 68.2625 18.6239Z" fill="#253858"/>
<path d="M85.6863 18.2704C86.3225 18.2704 86.888 18.1291 87.3828 18.0584V20.6379C86.9233 20.7793 86.3932 20.8853 85.5803 20.8853C82.2582 20.8853 80.6325 18.9418 80.6325 16.0442V7.74027H78.1232V5.26674H80.6325V1.98047H83.2478V5.26674H87.3828V7.74027H83.2478V15.9736C83.2124 17.3517 84.0253 18.2704 85.6863 18.2704Z" fill="#253858"/>
<path d="M90.4576 5.23069H93.1437V14.6313C93.1437 17.4232 94.2746 18.6601 96.8193 18.6601C99.2932 18.6601 101.025 16.9991 101.025 13.8537V5.19531H103.711V20.7451H101.025V18.2006C100.035 20.0384 98.1976 21.0632 96.1124 21.0632C92.5428 21.0632 90.493 18.5894 90.493 14.3132V5.23069H90.4576Z" fill="#253858"/>
<path d="M112.617 21.0975C110.285 21.0975 108.376 20.5675 107.21 19.9314V17.1044C108.553 17.8819 110.78 18.6239 112.759 18.6239C114.809 18.6239 115.869 17.7758 115.869 16.5744C115.869 15.4083 114.95 14.7015 112.017 13.9947C108.553 13.1466 107.104 11.8038 107.104 9.25954C107.104 6.53857 109.189 4.91309 112.723 4.91309C114.738 4.91309 116.576 5.40779 117.742 6.04386V8.80018C115.869 7.88142 114.349 7.38669 112.688 7.38669C110.744 7.38669 109.684 8.05811 109.684 9.29491C109.684 10.3904 110.426 11.0618 113.289 11.7685C116.752 12.6166 118.484 13.8887 118.484 16.5744C118.449 19.154 116.788 21.0975 112.617 21.0975Z" fill="#253858"/>
<path d="M124.21 18.0594V26.8589H121.524V5.23115H124.21V8.02294C125.199 5.97325 127.073 4.91309 129.476 4.91309C133.611 4.91309 135.696 8.41171 135.696 13.0059C135.696 17.388 133.505 21.0986 129.158 21.0986C126.896 21.0986 125.164 20.0737 124.21 18.0594ZM128.769 7.42219C126.366 7.42219 124.245 8.94178 124.245 12.4051V13.6419C124.245 17.1052 126.189 18.6248 128.486 18.6248C131.49 18.6248 133.045 16.6458 133.045 13.0412C133.01 9.29519 131.526 7.42219 128.769 7.42219Z" fill="#253858"/>
<path d="M149.338 17.9879C148.349 20.0374 146.476 21.0975 144.072 21.0975C139.937 21.0975 137.852 17.5992 137.852 13.0053C137.852 8.62351 140.043 4.91309 144.39 4.91309C146.652 4.91309 148.419 5.93786 149.338 7.95208V5.23113H152.024V20.7795H149.338V17.9879ZM144.815 18.6239C147.218 18.6239 149.338 17.1044 149.338 13.6414V12.4046C149.338 8.94152 147.395 7.42202 145.097 7.42202C142.093 7.42202 140.538 9.40093 140.538 13.0053C140.538 16.7511 142.022 18.6239 144.815 18.6239Z" fill="#253858"/>
<path d="M166.55 17.9885C165.561 20.0381 163.687 21.0983 161.284 21.0983C157.184 21.0983 155.135 17.5998 155.135 13.0057C155.135 8.62368 157.29 4.91309 161.602 4.91309C163.864 4.91309 165.631 5.93791 166.55 7.95223V5.23114H169.165V19.3667C169.165 23.9254 167.01 26.9999 161.461 26.9999C158.846 26.9999 157.432 26.6465 155.912 26.1518V23.5367C157.609 24.1021 159.411 24.4555 161.319 24.4555C165.207 24.4555 166.55 22.3705 166.55 19.4727V17.9885ZM161.991 18.6246C164.394 18.6246 166.515 17.105 166.515 13.6418V12.4049C166.515 8.94171 164.571 7.42214 162.274 7.42214C159.27 7.42214 157.715 9.40114 157.715 13.0057C157.75 16.7516 159.234 18.6246 161.991 18.6246Z" fill="#253858"/>
<path d="M180.652 21.0975C174.821 21.0975 172.276 17.7405 172.276 12.97C172.276 8.2701 174.891 4.91309 179.627 4.91309C184.434 4.91309 186.342 8.23476 186.342 12.97V14.1714H174.962C175.351 16.8217 177.047 18.5179 180.723 18.5179C182.525 18.5179 184.045 18.1645 185.458 17.6698V20.1434C184.186 20.8502 182.207 21.0975 180.652 21.0975ZM174.962 11.9098H183.656C183.515 9.01218 182.207 7.38669 179.521 7.38669C176.658 7.35136 175.209 9.18887 174.962 11.9098Z" fill="#253858"/>
<path d="M13.189 20.8252C16.6065 20.8252 19.3769 18.055 19.3769 14.6377C19.3769 11.2204 16.6065 8.4502 13.189 8.4502C9.77156 8.4502 7.00116 11.2204 7.00116 14.6377C7.00116 18.055 9.77156 20.8252 13.189 20.8252Z" fill="url(#paint0_linear)"/>
<path d="M0.176782 7.46147L3.50055 11.3856C3.74807 11.7038 4.20774 11.7392 4.49061 11.4564C9.86522 6.64836 16.5128 6.64836 21.8874 11.4564C22.1702 11.7039 22.6299 11.6685 22.8774 11.3856L26.2012 7.46147C26.4487 7.17864 26.4134 6.71908 26.1305 6.47161C18.3514 -0.351538 8.02654 -0.351538 0.247501 6.47161C-0.0353734 6.75443 -0.0707327 7.17864 0.176782 7.46147Z" fill="#2684FF"/>
<defs>
<linearGradient id="paint0_linear" x1="13.1916" y1="18.6745" x2="13.1916" y2="7.73075" gradientUnits="userSpaceOnUse">
<stop stop-color="#2684FF"/>
<stop offset="0.824" stop-color="#0052CC"/>
</linearGradient>
</defs>
</svg>
