<svg width="32" height="32" viewBox="0 0 32 32" fill="none" xmlns="http://www.w3.org/2000/svg">
<path d="M32 0H0V32H32V0Z" fill="#EBECF0"/>
<path d="M15.96 22.3201C18.1691 22.3201 19.96 20.5292 19.96 18.3201C19.96 16.1109 18.1691 14.3201 15.96 14.3201C13.7508 14.3201 11.96 16.1109 11.96 18.3201C11.96 20.5292 13.7508 22.3201 15.96 22.3201Z" fill="url(#paint0_linear)"/>
<path d="M7.55991 13.68L9.7199 16.2C9.8799 16.4 10.1599 16.4 10.3599 16.24C13.8399 13.12 18.1199 13.12 21.5999 16.24C21.7999 16.4 22.0799 16.4 22.2399 16.2L24.3999 13.68C24.5599 13.48 24.5199 13.2 24.3599 13.04C19.3199 8.63999 12.6799 8.63999 7.63991 13.04C7.43991 13.2 7.39991 13.52 7.55991 13.68Z" fill="#2684FF"/>
<defs>
<linearGradient id="paint0_linear" x1="15.9779" y1="20.9289" x2="15.9779" y2="13.8603" gradientUnits="userSpaceOnUse">
<stop stop-color="#2684FF"/>
<stop offset="0.824" stop-color="#0052CC"/>
</linearGradient>
</defs>
</svg>
