<svg width="32" height="32" viewBox="0 0 32 32" fill="none" xmlns="http://www.w3.org/2000/svg">
<path d="M15.9914 25C19.0901 25 21.6022 22.4421 21.6022 19.2868C21.6022 16.1315 19.0901 13.5736 15.9914 13.5736C12.8926 13.5736 10.3806 16.1315 10.3806 19.2868C10.3806 22.4421 12.8926 25 15.9914 25Z" fill="url(#paint0_linear)"/>
<path d="M4.16144 12.6444L7.20346 16.2926C7.44006 16.5679 7.8457 16.6023 8.0823 16.3614C12.9833 11.8872 19.0335 11.8872 23.9346 16.3614C24.205 16.6023 24.6106 16.5679 24.8134 16.2926C25.557 15.3977 27.1118 13.5048 27.8554 12.6444C28.0582 12.369 28.0582 11.9905 27.7878 11.7495C20.6898 5.41682 11.2933 5.41682 4.19527 11.7495C3.95867 11.9905 3.92484 12.4035 4.16144 12.6444Z" fill="white"/>
<defs>
<linearGradient id="paint0_linear" x1="16.0065" y1="12.6405" x2="16.0065" y2="21.3602" gradientUnits="userSpaceOnUse">
<stop stop-color="white" stop-opacity="0.4"/>
<stop offset="1" stop-color="white"/>
</linearGradient>
</defs>
</svg>
