<svg width="32" height="32" viewBox="0 0 32 32" fill="none" xmlns="http://www.w3.org/2000/svg">
<path d="M32 0H0V32H32V0Z" fill="#0052CC"/>
<path d="M16.0002 22.3201C18.2094 22.3201 20.0002 20.5292 20.0002 18.3201C20.0002 16.1109 18.2094 14.3201 16.0002 14.3201C13.7911 14.3201 12.0002 16.1109 12.0002 18.3201C12.0002 20.5292 13.7911 22.3201 16.0002 22.3201Z" fill="url(#paint0_linear)"/>
<path d="M7.60031 13.68L9.76027 16.24C9.92027 16.44 10.2003 16.44 10.4003 16.28C13.8803 13.16 18.1602 13.16 21.6403 16.28C21.8403 16.44 22.1203 16.44 22.2803 16.24C22.8003 15.6 23.9202 14.32 24.4403 13.68C24.6003 13.48 24.5603 13.2 24.4003 13.04C19.3603 8.63999 12.6802 8.63999 7.64025 13.04C7.44025 13.24 7.44031 13.52 7.60031 13.68Z" fill="white"/>
<defs>
<linearGradient id="paint0_linear" x1="15.9961" y1="13.6755" x2="15.9961" y2="19.7561" gradientUnits="userSpaceOnUse">
<stop stop-color="white" stop-opacity="0.4"/>
<stop offset="1" stop-color="white"/>
</linearGradient>
</defs>
</svg>
