<svg width="32" height="32" viewBox="0 0 32 32" fill="none" xmlns="http://www.w3.org/2000/svg">
<path d="M32 0H0V32H32V0Z" fill="#EBECF0"/>
<path d="M15.9998 22.3201C18.2089 22.3201 19.9998 20.5292 19.9998 18.3201C19.9998 16.1109 18.2089 14.3201 15.9998 14.3201C13.7906 14.3201 11.9998 16.1109 11.9998 18.3201C11.9998 20.5292 13.7906 22.3201 15.9998 22.3201Z" fill="url(#paint0_linear)"/>
<path d="M7.55992 13.68L9.71993 16.2C9.87993 16.4 10.1599 16.4 10.3599 16.24C13.8399 13.12 18.1199 13.12 21.5999 16.24C21.7999 16.4 22.0799 16.4 22.2399 16.2L24.3999 13.68C24.5599 13.48 24.5199 13.2 24.3599 13.04C19.3199 8.63999 12.6799 8.63999 7.6399 13.04C7.4399 13.2 7.39992 13.52 7.55992 13.68Z" fill="#7A869A"/>
<defs>
<linearGradient id="paint0_linear" x1="15.9805" y1="20.9289" x2="15.9805" y2="13.8603" gradientUnits="userSpaceOnUse">
<stop stop-color="#7A869A"/>
<stop offset="0.824" stop-color="#344563"/>
</linearGradient>
</defs>
</svg>
