<svg width="158" height="32" viewBox="0 0 158 32" fill="none" xmlns="http://www.w3.org/2000/svg">
<g id="logo-gradient-blue-opsgenie">
<g id="Opsgenie">
<path d="M30.1985 15.3639C30.1985 9.16543 33.7878 4.78375 40.2126 4.78375C46.6015 4.78375 50.1908 9.12981 50.1908 15.3639C50.1908 21.6336 46.6015 26.0153 40.2126 26.0153C33.8237 26.0153 30.1985 21.6336 30.1985 15.3639ZM33.0699 15.3639C33.0699 19.71 35.1158 23.3435 40.2485 23.3435C45.3452 23.3435 47.3911 19.7456 47.3911 15.3639C47.3911 11.0891 45.3452 7.49113 40.2485 7.49113C35.1158 7.49113 33.0699 11.0891 33.0699 15.3639Z" fill="#253858"/>
<path d="M56.5439 22.9517V31.8219H53.816V10.056H56.5439V12.8703C57.5489 10.8041 59.4512 9.73539 61.8919 9.73539C66.0914 9.73539 68.2091 13.2621 68.2091 17.8932C68.2091 22.3105 65.9837 26.0509 61.5689 26.0509C59.2718 26.0153 57.513 24.9822 56.5439 22.9517ZM61.1741 12.229C58.7334 12.229 56.5798 13.7608 56.5798 17.2519V18.4988C56.5798 21.9898 58.5539 23.5217 60.8869 23.5217C63.9378 23.5217 65.5171 21.5267 65.5171 17.8932C65.4812 14.1171 63.9737 12.229 61.1741 12.229Z" fill="#253858"/>
<path d="M76.3208 26.0153C73.9518 26.0153 72.0136 25.4809 70.8292 24.8397V21.9898C72.1931 22.7735 74.4543 23.5216 76.4643 23.5216C78.5461 23.5216 79.6229 22.6667 79.6229 21.4555C79.6229 20.2799 78.6897 19.5674 75.7106 18.855C72.1931 18 70.7215 16.6463 70.7215 14.0814C70.7215 11.3384 72.8392 9.69975 76.4284 9.69975C78.4743 9.69975 80.3408 10.1985 81.5252 10.8397V13.6183C79.6229 12.6921 78.0795 12.1934 76.3926 12.1934C74.4185 12.1934 73.3417 12.8702 73.3417 14.1171C73.3417 15.2214 74.0954 15.8982 77.0027 16.6107C80.5202 17.4657 82.279 18.7481 82.279 21.4555C82.279 24.056 80.5561 26.0153 76.3208 26.0153Z" fill="#253858"/>
<path d="M96.672 22.8804C95.667 24.9466 93.7647 26.0153 91.3239 26.0153C87.1604 26.0153 85.0786 22.4886 85.0786 17.8575C85.0786 13.4402 87.2681 9.69975 91.647 9.69975C93.9441 9.69975 95.7388 10.7328 96.672 12.7634V10.056H99.328V24.3053C99.328 28.9008 97.1386 32 91.5034 32C88.8473 32 87.4116 31.6438 85.8682 31.145V28.5089C87.5911 29.0789 89.4216 29.4351 91.3598 29.4351C95.3081 29.4351 96.672 27.3333 96.672 24.4122V22.8804ZM92.0418 23.5216C94.4825 23.5216 96.6361 21.9898 96.6361 18.4987V17.2519C96.6361 13.7608 94.662 12.229 92.3289 12.229C89.2781 12.229 87.6988 14.2239 87.6988 17.8575C87.7347 21.6336 89.2422 23.5216 92.0418 23.5216Z" fill="#253858"/>
<path d="M110.957 26.0153C105.035 26.0153 102.451 22.631 102.451 17.8219C102.451 13.084 105.107 9.69975 109.916 9.69975C114.798 9.69975 116.736 13.0484 116.736 17.8219V19.0331H105.215C105.609 21.7048 107.332 23.4148 111.065 23.4148C112.896 23.4148 114.439 23.0585 115.875 22.5598V25.0534C114.583 25.7659 112.573 26.0153 110.957 26.0153ZM105.179 16.7532H114.008C113.865 13.8321 112.537 12.1934 109.809 12.1934C106.937 12.1578 105.466 14.0102 105.179 16.7532Z" fill="#253858"/>
<path d="M133.39 25.7303H130.662V16.2545C130.662 13.4402 129.514 12.1934 126.93 12.1934C124.417 12.1934 122.658 13.8677 122.658 17.0382V25.7303H119.93V10.056H122.658V12.6209C123.663 10.7685 125.53 9.73539 127.647 9.73539C131.273 9.73539 133.354 12.229 133.354 16.5395V25.7303H133.39Z" fill="#253858"/>
<path d="M138.595 4.03564C139.707 4.03564 140.497 4.71249 140.497 5.92369C140.497 7.09926 139.707 7.81173 138.595 7.81173C137.482 7.81173 136.692 7.13488 136.692 5.92369C136.692 4.71249 137.482 4.03564 138.595 4.03564ZM137.195 10.056H139.923V25.7303H137.195V10.056Z" fill="#253858"/>
<path d="M152.198 26.0153C146.276 26.0153 143.691 22.631 143.691 17.8219C143.691 13.084 146.347 9.69975 151.157 9.69975C156.038 9.69975 157.977 13.0484 157.977 17.8219V19.0331H146.455C146.85 21.7048 148.573 23.4148 152.306 23.4148C154.136 23.4148 155.679 23.0585 157.115 22.5598V25.0534C155.787 25.7659 153.813 26.0153 152.198 26.0153ZM146.419 16.7532H155.249C155.105 13.8321 153.777 12.1934 151.049 12.1934C148.142 12.1578 146.706 14.0102 146.419 16.7532Z" fill="#253858"/>
</g>
<g id="Icon">
<path id="Vector" d="M10.7446 16.6819C14.2731 16.6819 17.1335 13.843 17.1335 10.341C17.1335 6.83895 14.2731 4 10.7446 4C7.21613 4 4.35571 6.83895 4.35571 10.341C4.35571 13.843 7.21613 16.6819 10.7446 16.6819Z" fill="url(#paint0_linear)"/>
<path id="Vector_2" d="M10.207 29.3283C6.04345 26.6565 2.56185 23.0586 0.0852525 18.7838C-0.0942114 18.4275 0.0134669 18 0.372395 17.8219H0.408287L5.25381 15.4708C5.57685 15.2927 6.00756 15.4352 6.18702 15.7558C8.62773 19.8168 12.2529 23.0942 16.5959 25.0891C14.9808 26.6922 13.222 28.1171 11.3197 29.3283C10.9608 29.5064 10.5301 29.5064 10.207 29.3283Z" fill="url(#paint1_linear)"/>
<path id="Vector_3" d="M11.2832 29.3283C15.4827 26.6922 18.9284 23.0586 21.4409 18.8194C21.6203 18.4632 21.5126 18.0357 21.1537 17.8576H21.1178L16.2723 15.5064C15.9493 15.3283 15.5185 15.4708 15.3391 15.7914C12.8984 19.8525 9.2732 23.1298 4.93018 25.1247C6.50946 26.7278 8.3041 28.1527 10.2064 29.3639C10.5294 29.5064 10.9602 29.5064 11.2832 29.3283Z" fill="#2684FF"/>
</g>
</g>
<defs>
<linearGradient id="paint0_linear" x1="10.7528" y1="6.11254" x2="10.7528" y2="19.1613" gradientUnits="userSpaceOnUse">
<stop stop-color="#2684FF"/>
<stop offset="0.82" stop-color="#0052CC"/>
</linearGradient>
<linearGradient id="paint1_linear" x1="6.80854" y1="18.7963" x2="11.1588" y2="27.9699" gradientUnits="userSpaceOnUse">
<stop stop-color="#2684FF"/>
<stop offset="0.62" stop-color="#0052CC"/>
</linearGradient>
</defs>
</svg>
