<svg width="157" height="32" viewBox="0 0 157 32" fill="none" xmlns="http://www.w3.org/2000/svg">
<g id="logo-gradient-white-opsgenie">
<g id="Opsgenie">
<path d="M30.0305 14.3634C30.0305 8.16585 33.5971 3.78486 39.9812 3.78486C46.3297 3.78486 49.8963 8.13023 49.8963 14.3634C49.8963 20.6321 46.3297 25.0131 39.9812 25.0131C33.6327 25.0131 30.0305 20.6321 30.0305 14.3634ZM32.8838 14.3634C32.8838 18.7087 34.9167 22.3418 40.0169 22.3418C45.0814 22.3418 47.1143 18.7444 47.1143 14.3634C47.1143 10.0892 45.0814 6.49181 40.0169 6.49181C34.9167 6.49181 32.8838 10.0892 32.8838 14.3634Z" fill="white"/>
<path d="M56.209 21.9499V30.8188H53.4985V9.05628H56.209V11.8701C57.2077 9.80426 59.0979 8.73572 61.5232 8.73572C65.6961 8.73572 67.8004 12.2619 67.8004 16.8922C67.8004 21.3088 65.5891 25.0487 61.2022 25.0487C58.9196 25.0131 57.172 23.9802 56.209 21.9499ZM60.8099 11.229C58.3846 11.229 56.2447 12.7605 56.2447 16.2511V17.4977C56.2447 20.9883 58.2063 22.5198 60.5246 22.5198C63.5561 22.5198 65.1254 20.5252 65.1254 16.8922C65.0898 13.1167 63.5918 11.229 60.8099 11.229Z" fill="white"/>
<path d="M75.8609 25.0131C73.507 25.0131 71.581 24.4788 70.404 23.8377V20.9882C71.7593 21.7718 74.0063 22.5198 76.0036 22.5198C78.0722 22.5198 79.1421 21.665 79.1421 20.454C79.1421 19.2786 78.2148 18.5662 75.2546 17.8539C71.7593 16.999 70.2971 15.6456 70.2971 13.0811C70.2971 10.3385 72.4013 8.70009 75.9679 8.70009C78.0008 8.70009 79.8554 9.19874 81.0324 9.83986V12.6181C79.1421 11.692 77.6085 11.1933 75.9322 11.1933C73.9706 11.1933 72.9006 11.8701 72.9006 13.1167C72.9006 14.2209 73.6496 14.8976 76.5385 15.61C80.0338 16.4648 81.7814 17.747 81.7814 20.454C81.7814 23.0541 80.0694 25.0131 75.8609 25.0131Z" fill="white"/>
<path d="M96.0833 21.8787C95.0846 23.9445 93.1944 25.0131 90.7691 25.0131C86.6319 25.0131 84.5633 21.4869 84.5633 16.8566C84.5633 12.44 86.7389 8.70009 91.0901 8.70009C93.3727 8.70009 95.156 9.73301 96.0833 11.7632V9.05627H98.7225V23.3034C98.7225 27.8981 96.5469 30.9969 90.9474 30.9969C88.3082 30.9969 86.8815 30.6407 85.3479 30.142V27.5063C87.0599 28.0762 88.8788 28.4324 90.8048 28.4324C94.728 28.4324 96.0833 26.3309 96.0833 23.4103V21.8787ZM91.4824 22.5198C93.9077 22.5198 96.0476 20.9882 96.0476 17.4977V16.2511C96.0476 12.7605 94.086 11.229 91.7677 11.229C88.7361 11.229 87.1669 13.2236 87.1669 16.8566C87.2025 20.6321 88.7005 22.5198 91.4824 22.5198Z" fill="white"/>
<path d="M110.314 25.0131C104.429 25.0131 101.861 21.6294 101.861 16.821C101.861 12.0838 104.5 8.70009 109.28 8.70009C114.13 8.70009 116.056 12.0482 116.056 16.821V18.032H104.607C105 20.7033 106.712 22.413 110.421 22.413C112.24 22.413 113.773 22.0568 115.2 21.5581V24.0514C113.88 24.7637 111.883 25.0131 110.314 25.0131ZM104.536 15.7524H113.31C113.167 12.8318 111.847 11.1933 109.137 11.1933C106.284 11.1577 104.821 13.0098 104.536 15.7524Z" fill="white"/>
<path d="M132.569 24.7281H129.859V15.2538C129.859 12.44 128.717 11.1934 126.149 11.1934C123.653 11.1934 121.905 12.8674 121.905 16.0374V24.7281H119.195V9.05628H121.905V11.6208C122.904 9.76864 124.758 8.73572 126.863 8.73572C130.465 8.73572 132.533 11.229 132.533 15.5387V24.7281H132.569Z" fill="white"/>
<path d="M137.741 3.03687C138.846 3.03687 139.631 3.7136 139.631 4.92461C139.631 6.1 138.846 6.81236 137.741 6.81236C136.635 6.81236 135.85 6.13562 135.85 4.92461C135.85 3.7136 136.635 3.03687 137.741 3.03687ZM136.35 9.05628H139.06V24.7281H136.35V9.05628Z" fill="white"/>
<path d="M151.258 25.0131C145.373 25.0131 142.805 21.6294 142.805 16.821C142.805 12.0838 145.444 8.70009 150.224 8.70009C155.074 8.70009 157 12.0482 157 16.821V18.032H145.551C145.944 20.7033 147.656 22.413 151.365 22.413C153.184 22.413 154.718 22.0568 156.144 21.5581V24.0514C154.825 24.7637 152.863 25.0131 151.258 25.0131ZM145.516 15.7524H154.29C154.147 12.8318 152.827 11.1933 150.117 11.1933C147.228 11.1577 145.801 13.0098 145.516 15.7524Z" fill="white"/>
</g>
<g id="Icon">
<path id="Vector" d="M10.6997 16.1349C14.2058 16.1349 17.0482 13.1945 17.0482 9.56743C17.0482 5.94034 14.2058 3 10.6997 3C7.19351 3 4.3512 5.94034 4.3512 9.56743C4.3512 13.1945 7.19351 16.1349 10.6997 16.1349Z" fill="url(#paint0_linear)"/>
<path id="Vector_2" d="M10.1646 29.2328C6.02742 26.4657 2.56786 22.7392 0.10693 18.3117C-0.0713984 17.9428 0.0355985 17.5 0.392255 17.3155H0.42792L5.24278 14.8804C5.56377 14.6959 5.99175 14.8435 6.17008 15.1756C8.59534 19.3817 12.1976 22.7761 16.5131 24.8422C14.9082 26.5026 13.1605 27.9784 11.2703 29.2328C10.9136 29.4173 10.4856 29.4173 10.1646 29.2328Z" fill="url(#paint1_linear)"/>
<path id="Vector_3" d="M11.2346 29.2328C15.4074 26.5025 18.8313 22.7392 21.3279 18.3486C21.5063 17.9796 21.3993 17.5369 21.0426 17.3524H21.0069L16.1921 14.9173C15.8711 14.7328 15.4431 14.8804 15.2648 15.2124C12.8395 19.4186 9.23729 22.813 4.92175 24.8791C6.49104 26.5394 8.27432 28.0152 10.1646 29.2697C10.4856 29.4173 10.9136 29.4173 11.2346 29.2328Z" fill="white"/>
</g>
</g>
<defs>
<linearGradient id="paint0_linear" x1="10.7078" y1="5.18799" x2="10.7078" y2="18.7028" gradientUnits="userSpaceOnUse">
<stop stop-color="white"/>
<stop offset="0.15" stop-color="white" stop-opacity="0.98"/>
<stop offset="0.31" stop-color="white" stop-opacity="0.93"/>
<stop offset="0.48" stop-color="white" stop-opacity="0.84"/>
<stop offset="0.66" stop-color="white" stop-opacity="0.72"/>
<stop offset="0.84" stop-color="white" stop-opacity="0.56"/>
<stop offset="1" stop-color="white" stop-opacity="0.4"/>
</linearGradient>
<linearGradient id="paint1_linear" x1="6.78767" y1="18.3247" x2="11.4106" y2="27.6776" gradientUnits="userSpaceOnUse">
<stop stop-color="white"/>
<stop offset="0.85" stop-color="white" stop-opacity="0.35"/>
</linearGradient>
</defs>
</svg>
