<svg width="157" height="32" viewBox="0 0 157 32" fill="none" xmlns="http://www.w3.org/2000/svg">
<g id="logo-gradient-neutral-opsgenie">
<g id="Opsgenie">
<path d="M30.0072 14.8639C30.0072 8.66543 33.5738 4.28375 39.9579 4.28375C46.3064 4.28375 49.8729 8.62981 49.8729 14.8639C49.8729 21.1336 46.3064 25.5153 39.9579 25.5153C33.6094 25.5153 30.0072 21.1336 30.0072 14.8639ZM32.8605 14.8639C32.8605 19.21 34.8934 22.8435 39.9936 22.8435C45.0581 22.8435 47.091 19.2456 47.091 14.8639C47.091 10.5891 45.0581 6.99113 39.9936 6.99113C34.8934 6.99113 32.8605 10.5891 32.8605 14.8639Z" fill="#505F79"/>
<path d="M56.1859 22.4517V31.3219H53.4753V9.556H56.1859V12.3703C57.1845 10.3041 59.0748 9.23539 61.5 9.23539C65.6729 9.23539 67.7772 12.7621 67.7772 17.3932C67.7772 21.8105 65.5659 25.5509 61.1791 25.5509C58.8965 25.5153 57.1488 24.4822 56.1859 22.4517ZM60.7867 11.729C58.3615 11.729 56.2215 13.2608 56.2215 16.7519V17.9988C56.2215 21.4898 58.1831 23.0217 60.5014 23.0217C63.533 23.0217 65.1023 21.0267 65.1023 17.3932C65.0666 13.6171 63.5686 11.729 60.7867 11.729Z" fill="#505F79"/>
<path d="M75.8376 25.5153C73.4836 25.5153 71.5577 24.9809 70.3807 24.3397V21.4898C71.736 22.2735 73.983 23.0216 75.9802 23.0216C78.0488 23.0216 79.1188 22.1667 79.1188 20.9555C79.1188 19.7799 78.1915 19.0674 75.2313 18.355C71.736 17.5 70.2737 16.1463 70.2737 13.5814C70.2737 10.8384 72.378 9.19975 75.9446 9.19975C77.9775 9.19975 79.8321 9.69848 81.0091 10.3397V13.1183C79.1188 12.1921 77.5852 11.6934 75.9089 11.6934C73.9473 11.6934 72.8773 12.3702 72.8773 13.6171C72.8773 14.7214 73.6263 15.3982 76.5152 16.1107C80.0104 16.9657 81.7581 18.2481 81.7581 20.9555C81.7581 23.556 80.0461 25.5153 75.8376 25.5153Z" fill="#505F79"/>
<path d="M96.06 22.3804C95.0613 24.4466 93.1711 25.5153 90.7458 25.5153C86.6086 25.5153 84.54 21.9886 84.54 17.3575C84.54 12.9402 86.7156 9.19975 91.0668 9.19975C93.3494 9.19975 95.1327 10.2328 96.06 12.2634V9.55598H98.6992V23.8053C98.6992 28.4008 96.5236 31.5 90.9241 31.5C88.2849 31.5 86.8582 31.1438 85.3246 30.645V28.0089C87.0366 28.5789 88.8555 28.9351 90.7815 28.9351C94.7047 28.9351 96.06 26.8333 96.06 23.9122V22.3804ZM91.4591 23.0216C93.8844 23.0216 96.0243 21.4898 96.0243 17.9987V16.7519C96.0243 13.2608 94.0627 11.729 91.7444 11.729C88.7128 11.729 87.1436 13.7239 87.1436 17.3575C87.1792 21.1336 88.6772 23.0216 91.4591 23.0216Z" fill="#505F79"/>
<path d="M110.255 25.5153C104.37 25.5153 101.802 22.131 101.802 17.3219C101.802 12.584 104.441 9.19975 109.221 9.19975C114.071 9.19975 115.997 12.5484 115.997 17.3219V18.5331H104.548C104.941 21.2048 106.653 22.9148 110.362 22.9148C112.181 22.9148 113.714 22.5585 115.141 22.0598V24.5534C113.857 25.2659 111.86 25.5153 110.255 25.5153ZM104.513 16.2532H113.287C113.144 13.3321 111.824 11.6934 109.114 11.6934C106.26 11.6578 104.798 13.5102 104.513 16.2532Z" fill="#505F79"/>
<path d="M132.546 25.2303H129.835V15.7545C129.835 12.9402 128.694 11.6934 126.126 11.6934C123.629 11.6934 121.882 13.3677 121.882 16.5382V25.2303H119.171V9.556H121.882V12.1209C122.88 10.2685 124.735 9.23539 126.839 9.23539C130.442 9.23539 132.51 11.729 132.51 16.0395V25.2303H132.546Z" fill="#505F79"/>
<path d="M137.717 3.53564C138.823 3.53564 139.608 4.21249 139.608 5.42369C139.608 6.59926 138.823 7.31173 137.717 7.31173C136.612 7.31173 135.827 6.63488 135.827 5.42369C135.827 4.21249 136.612 3.53564 137.717 3.53564ZM136.326 9.556H139.037V25.2303H136.326V9.556Z" fill="#505F79"/>
<path d="M151.234 25.5153C145.35 25.5153 142.782 22.131 142.782 17.3219C142.782 12.584 145.421 9.19975 150.2 9.19975C155.051 9.19975 156.977 12.5484 156.977 17.3219V18.5331H145.528C145.92 21.2048 147.632 22.9148 151.341 22.9148C153.16 22.9148 154.694 22.5585 156.121 22.0598V24.5534C154.801 25.2659 152.839 25.5153 151.234 25.5153ZM145.492 16.2532H154.266C154.123 13.3321 152.804 11.6934 150.093 11.6934C147.204 11.6578 145.778 13.5102 145.492 16.2532Z" fill="#505F79"/>
</g>
<g id="Icon">
<path id="Vector" d="M10.6765 16.1819C14.1826 16.1819 17.025 13.343 17.025 9.84097C17.025 6.33895 14.1826 3.5 10.6765 3.5C7.17031 3.5 4.328 6.33895 4.328 9.84097C4.328 13.343 7.17031 16.1819 10.6765 16.1819Z" fill="url(#paint0_linear)"/>
<path id="Vector_2" d="M10.1424 28.8283C6.0052 26.1565 2.54564 22.5586 0.0847129 18.2838C-0.0936151 17.9275 0.0133817 17.5 0.370038 17.3219H0.405703L5.22056 14.9708C5.54155 14.7927 5.96954 14.9352 6.14787 15.2558C8.57313 19.3168 12.1754 22.5942 16.4909 24.5891C14.8859 26.1922 13.1383 27.6171 11.248 28.8283C10.8914 29.0064 10.4634 29.0064 10.1424 28.8283Z" fill="url(#paint1_linear)"/>
<path id="Vector_3" d="M11.2117 28.8283C15.3846 26.1922 18.8085 22.5586 21.3051 18.3194C21.4834 17.9632 21.3764 17.5357 21.0198 17.3576H20.9841L16.1693 15.0064C15.8483 14.8283 15.4203 14.9708 15.242 15.2914C12.8167 19.3525 9.21446 22.6298 4.89893 24.6247C6.46821 26.2278 8.25149 27.6527 10.1418 28.8639C10.4628 29.0064 10.8907 29.0064 11.2117 28.8283Z" fill="#7A869A"/>
</g>
</g>
<defs>
<linearGradient id="paint0_linear" x1="10.6846" y1="5.61254" x2="10.6846" y2="18.6613" gradientUnits="userSpaceOnUse">
<stop stop-color="#7A869A"/>
<stop offset="0.82" stop-color="#344563"/>
</linearGradient>
<linearGradient id="paint1_linear" x1="6.76545" y1="18.2963" x2="11.1332" y2="27.4484" gradientUnits="userSpaceOnUse">
<stop stop-color="#7A869A"/>
<stop offset="0.62" stop-color="#344563"/>
</linearGradient>
</defs>
</svg>
