<svg width="32" height="32" viewBox="0 0 32 32" fill="none" xmlns="http://www.w3.org/2000/svg">
<path d="M16.0718 15.9558C19.3682 15.9558 22.0403 13.2794 22.0403 9.97788C22.0403 6.67639 19.3682 4 16.0718 4C12.7755 4 10.1033 6.67639 10.1033 9.97788C10.1033 13.2794 12.7755 15.9558 16.0718 15.9558Z" fill="url(#paint0_linear)"/>
<path d="M15.5354 27.8444C11.6458 25.3592 8.39329 21.9673 6.07965 17.9373C5.91199 17.6014 6.01256 17.1984 6.34787 17.0305H6.38139L10.9081 14.814C11.2099 14.6461 11.6123 14.7804 11.7799 15.0827C14.06 18.9112 17.4466 22.0009 21.5039 23.8816C20.0285 25.3928 18.352 26.7362 16.5749 27.878C16.2395 28.0459 15.8707 28.0459 15.5354 27.8444Z" fill="url(#paint1_linear)"/>
<path d="M16.5747 27.8444C20.4642 25.3592 23.7167 21.9673 26.0303 17.9373C26.1979 17.6014 26.0973 17.1984 25.762 17.0305H25.7285L21.2018 14.814C20.9 14.6461 20.4977 14.7804 20.3301 15.0827C18.05 18.9112 14.6634 22.0009 10.6062 23.8816C12.0815 25.3928 13.7581 26.7362 15.5352 27.878C15.8705 28.0459 16.2394 28.0459 16.5747 27.8444Z" fill="white"/>
<defs>
<linearGradient id="paint0_linear" x1="16.0559" y1="5.97922" x2="16.0559" y2="18.271" gradientUnits="userSpaceOnUse">
<stop stop-color="white"/>
<stop offset="0.82" stop-color="white" stop-opacity="0.4"/>
</linearGradient>
<linearGradient id="paint1_linear" x1="12.3734" y1="17.9273" x2="16.4949" y2="26.5396" gradientUnits="userSpaceOnUse">
<stop stop-color="white"/>
<stop offset="0.62" stop-color="white" stop-opacity="0.35"/>
</linearGradient>
</defs>
</svg>
