<svg width="32" height="32" viewBox="0 0 32 32" fill="none" xmlns="http://www.w3.org/2000/svg">
<path d="M16.0543 15.9558C19.3557 15.9558 22.0321 13.2794 22.0321 9.97788C22.0321 6.67639 19.3557 4 16.0543 4C12.7528 4 10.0764 6.67639 10.0764 9.97788C10.0764 13.2794 12.7528 15.9558 16.0543 15.9558Z" fill="url(#paint0_linear)"/>
<path d="M15.5505 27.8444C11.6547 25.3592 8.39706 21.9673 6.07976 17.9373C5.91184 17.6014 6.01261 17.1984 6.34845 17.0305H6.38203L10.9159 14.814C11.2181 14.6461 11.6211 14.7804 11.789 15.0827C14.0728 18.9112 17.4647 22.0009 21.5284 23.8816C20.0507 25.3928 18.3715 26.7362 16.5916 27.878C16.2557 28.0459 15.8527 28.0459 15.5505 27.8444Z" fill="url(#paint1_linear)"/>
<path d="M16.5578 27.8444C20.4535 25.3592 23.7111 21.9673 26.0284 17.9373C26.1963 17.6014 26.0955 17.1984 25.7597 17.0305H25.7261L21.1923 14.814C20.89 14.6461 20.487 14.7804 20.3191 15.0827C18.0354 18.9112 14.6435 22.0009 10.5798 23.8816C12.0575 25.3928 13.7367 26.7362 15.5166 27.878C15.8525 28.0459 16.2555 28.0459 16.5578 27.8444Z" fill="#7A869A"/>
<defs>
<linearGradient id="paint0_linear" x1="16.0592" y1="5.97922" x2="16.0592" y2="18.271" gradientUnits="userSpaceOnUse">
<stop stop-color="#7A869A"/>
<stop offset="0.82" stop-color="#344563"/>
</linearGradient>
<linearGradient id="paint1_linear" x1="12.3709" y1="17.9273" x2="16.4882" y2="26.5447" gradientUnits="userSpaceOnUse">
<stop stop-color="#7A869A"/>
<stop offset="0.62" stop-color="#344563"/>
</linearGradient>
</defs>
</svg>
