<svg width="32" height="32" viewBox="0 0 32 32" fill="none" xmlns="http://www.w3.org/2000/svg">
<path d="M32 0H0V32H32V0Z" fill="#EBECF0"/>
<path d="M16.1198 15.96C18.4836 15.96 20.3998 14.0438 20.3998 11.68C20.3998 9.31624 18.4836 7.40002 16.1198 7.40002C13.7561 7.40002 11.8398 9.31624 11.8398 11.68C11.8398 14.0438 13.7561 15.96 16.1198 15.96Z" fill="url(#paint0_linear)"/>
<path d="M15.7199 24.44C12.9199 22.64 10.5999 20.24 8.95992 17.36C8.83992 17.12 8.91992 16.84 9.15992 16.72C9.15992 16.72 9.15992 16.72 9.19992 16.72L12.4399 15.12C12.6799 15 12.9599 15.08 13.0799 15.32C14.7199 18.08 17.1599 20.24 20.0399 21.6C18.9599 22.68 17.7999 23.64 16.5199 24.44C16.2399 24.6 15.9599 24.6 15.7199 24.44Z" fill="url(#paint1_linear)"/>
<path d="M16.4799 24.44C19.2799 22.64 21.5999 20.24 23.2399 17.36C23.3599 17.12 23.2799 16.84 23.0399 16.72C23.0399 16.72 23.0399 16.72 22.9999 16.72L19.7599 15.12C19.5199 15 19.2399 15.08 19.1199 15.32C17.4799 18.08 15.0799 20.24 12.1599 21.6C13.2399 22.68 14.3999 23.64 15.6799 24.44C15.9599 24.6 16.2399 24.6 16.4799 24.44Z" fill="#2684FF"/>
<defs>
<linearGradient id="paint0_linear" x1="16.1011" y1="8.83634" x2="16.1011" y2="17.6205" gradientUnits="userSpaceOnUse">
<stop stop-color="#2684FF"/>
<stop offset="0.82" stop-color="#0052CC"/>
</linearGradient>
<linearGradient id="paint1_linear" x1="13.4654" y1="17.3748" x2="16.4078" y2="23.533" gradientUnits="userSpaceOnUse">
<stop stop-color="#2684FF"/>
<stop offset="0.62" stop-color="#0052CC"/>
</linearGradient>
</defs>
</svg>
