<svg class="w-8 md:w-11 h-8 md:h-11 text-sky-600" xmlns="http://www.w3.org/2000/svg" fill="none" viewBox="0 0 50 50"><path fill="#fff" d="M0 0h50v50H0z"></path>
                <path fill="currentColor" d="M49 25c0 13.255-10.745 24-24 24S1 38.255 1 25 11.745 1 25 1s24 10.745 24 24Z"></path>
                <path fill="currentColor" d="m1.182 48.789 5.2-10.711 5.51 5.511-10.71 5.2Z"></path>
                <path fill="#fff" d="m11.88 24.227 8.66 8.99-2.88 2.774L9 27.003l2.88-2.776Z"></path>
                <path fill="#fff" d="M17.209 35.587s6.275-9.653 12.353-14.571C35.641 16.097 38.875 15 38.875 15l1.904 3.76s-1.339-.316-8.77 5.219c-7.433 5.535-11.355 15.184-11.355 15.184l-3.445-3.576Z"></path></svg>